<?xml version="1.0" encoding="UTF-8" standalone="no"?>
<svg
   xmlns:dc="http://purl.org/dc/elements/1.1/"
   xmlns:cc="http://creativecommons.org/ns#"
   xmlns:rdf="http://www.w3.org/1999/02/22-rdf-syntax-ns#"
   xmlns:svg="http://www.w3.org/2000/svg"
   xmlns="http://www.w3.org/2000/svg"
   xmlns:xlink="http://www.w3.org/1999/xlink"
   xmlns:sodipodi="http://sodipodi.sourceforge.net/DTD/sodipodi-0.dtd"
   xmlns:inkscape="http://www.inkscape.org/namespaces/inkscape"
   enable-background="new 0 0 24 24"
   height="24px"
   id="Layer_1"
   version="1.1"
   viewBox="0 0 24 24"
   width="24px"
   xml:space="preserve"
   inkscape:version="0.48.4 r9939"
   sodipodi:docname="toogle.svg"
   inkscape:export-filename="C:\Users\Stas\Desktop\toggleof.png"
   inkscape:export-xdpi="91.743385"
   inkscape:export-ydpi="91.743385"><metadata
     id="metadata17"><rdf:RDF><cc:Work
         rdf:about=""><dc:format>image/svg+xml</dc:format><dc:type
           rdf:resource="http://purl.org/dc/dcmitype/StillImage" /><dc:title></dc:title></cc:Work></rdf:RDF></metadata><defs
     id="defs15"><linearGradient
       inkscape:collect="always"
       id="linearGradient3791"><stop
         style="stop-color:#898a8b;stop-opacity:1;"
         offset="0"
         id="stop3793" /><stop
         style="stop-color:#898a8b;stop-opacity:0;"
         offset="1"
         id="stop3795" /></linearGradient><linearGradient
       inkscape:collect="always"
       xlink:href="#linearGradient3791"
       id="linearGradient3797"
       x1="40.747372"
       y1="8.9406776"
       x2="17.062117"
       y2="9.1440678"
       gradientUnits="userSpaceOnUse" /><linearGradient
       inkscape:collect="always"
       xlink:href="#linearGradient3791"
       id="linearGradient3801"
       gradientUnits="userSpaceOnUse"
       x1="40.747372"
       y1="8.9406776"
       x2="20.083693"
       y2="9.0423727" /></defs><sodipodi:namedview
     pagecolor="#ffffff"
     bordercolor="#666666"
     borderopacity="1"
     objecttolerance="10"
     gridtolerance="10"
     guidetolerance="10"
     inkscape:pageopacity="0"
     inkscape:pageshadow="2"
     inkscape:window-width="1366"
     inkscape:window-height="706"
     id="namedview13"
     showgrid="false"
     inkscape:zoom="9.8333333"
     inkscape:cx="13.767412"
     inkscape:cy="6.9896492"
     inkscape:window-x="-8"
     inkscape:window-y="-8"
     inkscape:window-maximized="1"
     inkscape:current-layer="Layer_1" /><g
     id="g3"
     transform="matrix(-1.0433437,0,0,1,63.869448,2.7457627)"
     style="fill:url(#linearGradient3797);fill-opacity:1"><path
       d="m 35.798728,0.99999997 c 0.27373,0 17.518644,0 17.792373,0 4.105932,0 7.527543,3.65562403 7.527543,8.04237323 0,4.3867498 -3.421611,8.0423728 -7.527543,8.0423728 -0.273729,0 -0.684322,0 -0.684322,0 H 36.483051 c 0,0 -0.410593,0 -0.684323,0 -4.105931,0 -7.527542,-3.655623 -7.527542,-8.0423728 0,-4.3867492 3.421611,-8.04237323 7.527542,-8.04237323 z m 0,13.16024603 c 0.27373,0 0.684323,0 0.684323,0 0,0 16.834321,0 17.10805,0 2.600424,0 4.790254,-2.339598 4.790254,-5.1178728 0,-2.7782746 -2.18983,-5.1178741 -4.790254,-5.1178741 -0.273729,0 -17.518643,0 -17.792373,0 -2.600423,0 -4.790254,2.3395995 -4.790254,5.1178741 0,2.7782748 2.189831,5.1178728 4.790254,5.1178728 z"
       id="path9"
       inkscape:connector-curvature="0"
       style="fill:url(#linearGradient3801);fill-opacity:1;stroke:none" /><path
       d="m 53.591101,5.3867488 c 1.916102,0 3.421611,1.6084746 3.421611,3.6556244 0,2.0471498 -1.505509,3.6556248 -3.421611,3.6556248 -1.916101,0 -3.42161,-1.608475 -3.42161,-3.6556248 0,-2.0471498 1.505509,-3.6556244 3.42161,-3.6556244 z m 0,5.8489992 c 1.094916,0 2.052966,-1.023575 2.052966,-2.1933748 0,-1.1698001 -0.95805,-2.1933748 -2.052966,-2.1933748 -1.094915,0 -2.052966,1.0235747 -2.052966,2.1933748 0,1.1697998 0.958051,2.1933748 2.052966,2.1933748 z"
       id="path11"
       inkscape:connector-curvature="0"
       style="fill:url(#linearGradient3797);fill-opacity:1;stroke:none" /><path
       sodipodi:type="arc"
       style="fill:url(#linearGradient3797);fill-opacity:1;fill-rule:nonzero;stroke:none"
       id="path3785"
       sodipodi:cx="43.271187"
       sodipodi:cy="9.3559322"
       sodipodi:rx="3.1016948"
       sodipodi:ry="2.2372882"
       d="m 40.997404,7.8342516 c 1.165101,-0.9058054 3.12761,-0.9588261 4.383385,-0.1184251 1.255776,0.840401 1.329282,2.255981 0.164181,3.1617865 -1.165102,0.905805 -3.12761,0.958826 -4.383386,0.118425 -1.175691,-0.786807 -1.325941,-2.0903591 -0.346523,-3.0064066"
       transform="matrix(-0.71798397,0,0,1.063456,84.670729,-0.89485763)"
       sodipodi:start="3.8895532"
       sodipodi:end="10.081716"
       sodipodi:open="true" /></g></svg>